<?xml version="1.0" encoding="UTF-8"?>
<svg xmlns="http://www.w3.org/2000/svg" width="512" height="512" viewBox="0 0 512 512">
  <defs>
    <linearGradient id="g" x1="0" y1="0" x2="1" y2="1">
      <stop offset="0" stop-color="#EC802B"/>
      <stop offset="0.55" stop-color="#EDC55B"/>
      <stop offset="1" stop-color="#66BCB4"/>
    </linearGradient>
    <filter id="s" x="-20%" y="-20%" width="140%" height="140%">
      <feDropShadow dx="0" dy="10" stdDeviation="14" flood-color="#000" flood-opacity="0.22"/>
    </filter>
  </defs>
  <rect x="48" y="48" width="416" height="416" rx="96" fill="url(#g)" filter="url(#s)"/>
  <circle cx="400" cy="144" r="20" fill="#fff" opacity="0.25"/>
  <circle cx="132" cy="384" r="26" fill="#fff" opacity="0.22"/>
  <!-- Keep logo text-free for consistent rendering across crawlers -->
  <g fill="none" stroke="#ffffff" stroke-width="18" stroke-linecap="round" stroke-linejoin="round" opacity="0.95">
    <!-- Stylized book -->
    <path d="M166 190c34-18 74-18 108 0" />
    <path d="M274 190c34-18 74-18 108 0" />
    <path d="M166 190v160c34-18 74-18 108 0V190" />
    <path d="M274 190v160c34-18 74-18 108 0V190" />
    <!-- Small star -->
    <path d="M256 152l10 20 22 3-16 15 4 22-20-10-20 10 4-22-16-15 22-3z" fill="#ffffff" stroke="none" opacity="0.9"/>
  </g>
</svg>

